<svg width="30" height="30" viewBox="0 0 30 30" fill="none" xmlns="http://www.w3.org/2000/svg">
<path d="M15 0C6.72896 0 0 6.72896 0 15C0 23.271 6.72896 30 15 30C23.271 30 30 23.271 30 15C30 6.72896 23.271 0 15 0ZM15 28.2838C7.67524 28.2838 1.71618 22.3247 1.71618 15C1.71618 7.67534 7.67524 1.71618 15 1.71618C22.3248 1.71618 28.2838 7.67534 28.2838 15C28.2838 22.3247 22.3248 28.2838 15 28.2838Z" fill="white"/>
<path d="M18.4744 6.86017H16.4403C14.7755 6.86017 13.4211 8.21462 13.4211 9.8794V12.1676H11.5261C11.0522 12.1676 10.668 12.5518 10.668 13.0257C10.668 13.4997 11.0522 13.8838 11.5261 13.8838H13.4211V21.8291C13.4211 22.303 13.8052 22.6872 14.2792 22.6872C14.7531 22.6872 15.1372 22.303 15.1372 21.8291V13.8838H18.0691C18.543 13.8838 18.9271 13.4997 18.9271 13.0257C18.9271 12.5518 18.543 12.1676 18.0691 12.1676H15.1372V9.8794C15.1372 9.1609 15.7218 8.57635 16.4403 8.57635H18.4743C18.9482 8.57635 19.3324 8.19221 19.3324 7.71826C19.3324 7.24431 18.9482 6.86017 18.4744 6.86017Z" fill="white"/>
</svg>
