<svg width="30" height="30" viewBox="0 0 30 30" fill="none" xmlns="http://www.w3.org/2000/svg">
<path d="M26.8419 14.9879L26.8096 13.7247C26.803 13.4679 26.593 13.2631 26.3361 13.2631H16.2631C16.0015 13.2631 15.7895 13.4753 15.7895 13.7368V17.5263C15.7895 17.7879 16.0016 18 16.2631 18L21.4431 18.0001C20.2871 20.4811 17.7775 22.1052 15 22.1052C11.0955 22.1052 7.91646 18.9395 7.89489 15.0399C7.87386 11.2332 10.8981 8.05727 14.7016 7.90082C15.0321 7.88723 15.3592 7.89631 15.6813 7.92678C15.8198 7.93985 15.9566 7.88981 16.055 7.79149C16.0576 7.78879 16.0605 7.78598 16.0632 7.78328C16.3422 7.50426 16.1738 7.02198 15.781 6.98442C15.5233 6.95981 15.2628 6.94727 15 6.94727C12.7313 6.94727 10.679 7.89074 9.2139 9.40551L7.05489 7.55371C9.04392 5.43274 11.8696 4.10524 15 4.10524C18.6712 4.10524 22.0193 5.90026 24.0501 8.93172L21.5956 10.3784C20.7859 9.22123 19.7103 8.31883 18.4775 7.73037C18.299 7.64518 18.0858 7.68397 17.946 7.82377L17.9399 7.82992C17.7123 8.0575 17.7743 8.44475 18.0648 8.58326C19.2729 9.15918 20.3101 10.0773 21.0454 11.2646C21.1809 11.4835 21.4665 11.554 21.6886 11.4233L24.9542 9.49844C25.0635 9.43404 25.1424 9.32846 25.1732 9.20541C25.204 9.08231 25.1842 8.95211 25.1181 8.84377C24.0797 7.14039 22.6166 5.7154 20.8871 4.72258C19.1036 3.69895 17.068 3.1579 15 3.1579C8.47023 3.1579 3.15788 8.47024 3.15788 15C3.15788 19.0149 5.16659 22.569 8.23146 24.7115C8.41702 24.8412 8.66962 24.8168 8.8297 24.6567L8.83597 24.6504C9.0421 24.4437 9.01169 24.1014 8.77245 23.9342C7.6846 23.1736 6.74136 22.2198 5.99318 21.1228L8.41333 19.6271C9.87202 21.6974 12.2806 23.0526 15 23.0526C17.2307 23.0526 19.3088 22.1278 20.7967 20.5884L22.9531 22.4379C20.9636 24.5638 18.1346 25.8947 15 25.8947C13.5041 25.8947 12.0781 25.5909 10.7795 25.0428C10.604 24.9688 10.4012 25.0086 10.2665 25.1433L10.2593 25.1505C10.0228 25.387 10.1033 25.7861 10.4114 25.9161C11.8233 26.512 13.3738 26.8421 15 26.8421C21.5298 26.8421 26.8421 21.5297 26.8421 15C26.8421 14.996 26.842 14.9919 26.8419 14.9879ZM5.49413 20.3175C4.6103 18.7437 4.10523 16.9299 4.10523 15C4.10523 12.4629 4.97704 10.1255 6.43679 8.27178L8.59614 10.1239C7.56237 11.4782 6.94732 13.1685 6.94732 15C6.94732 16.3823 7.29759 17.6844 7.91382 18.8222L5.49413 20.3175ZM23.5705 21.7192L21.4139 19.8696C21.9101 19.2178 22.3116 18.4838 22.5942 17.6843C22.6455 17.5393 22.6231 17.3785 22.5344 17.253C22.4455 17.1274 22.3014 17.0527 22.1476 17.0527L16.7368 17.0526V14.2105H25.8744L25.8947 15.006C25.8934 17.5368 25.0248 19.8684 23.5705 21.7192Z" fill="white"/>
<path d="M25.6066 4.39348C22.7735 1.56023 19.0066 0 15 0C10.9934 0 7.22654 1.56023 4.39348 4.39348C1.56023 7.22654 0 10.9934 0 15C0 19.0066 1.56023 22.7735 4.39348 25.6066C7.22654 28.4398 10.9934 30 15 30C19.0066 30 22.7735 28.4398 25.6066 25.6065C28.4398 22.7735 30 19.0066 30 15C30 10.9934 28.4398 7.22654 25.6066 4.39348ZM15 29.0527C7.25133 29.0527 0.947344 22.7487 0.947344 15C0.947344 7.25133 7.25133 0.947344 15 0.947344C22.7487 0.947344 29.0527 7.25133 29.0527 15C29.0527 22.7487 22.7487 29.0527 15 29.0527Z" fill="white"/>
</svg>
