<svg width="69" height="71" viewBox="0 0 69 71" fill="none" xmlns="http://www.w3.org/2000/svg">
<path d="M35.5579 69.9188C26.3425 70.6274 8.67953 66.5233 1 64.3826C1 44.2309 3.72701 1 34.3825 1C65.0379 1 66.3544 43.788 68 65.9328C61.0257 66.9662 44.7733 69.2102 35.5579 69.9188Z" fill="#EA1818" stroke="black"/>
<path d="M19.7413 14.198C16.7739 17.6712 10.886 26.053 11.0734 31.7953C16.2273 33.2618 27.9406 36.102 33.5629 35.7316C40.5909 35.2685 57.9266 35.7316 57.458 31.1007C56.9895 26.4698 55.1154 22.5336 48.5559 14.198H19.7413Z" fill="#9FC9D4" stroke="black"/>
<path d="M20.6783 50.5503C20.9907 43.9127 21.3343 29.7114 20.2098 26.0067C20.4441 25.3892 21.5217 24.5248 23.958 26.0067C26.3944 27.4886 27.7844 39.2819 28.1748 44.9933L32.3916 42.6778C33.2664 43.0072 34.7812 43.7759 36.3741 44.9839C35.6713 40.8067 39.4196 40.3624 39.6538 41.7517C39.8881 43.1409 44.3392 48.698 44.1049 49.6241C43.9175 50.3651 42.9336 51.7852 42.465 52.4027V58.4228C39.8881 60.9698 36.8427 66.9899 36.3741 68.1476C35.9993 69.0738 32.782 69.4597 31.2203 69.5369L23.958 70V68.8423C22.4744 63.7483 19.507 53.4215 19.507 52.8658C19.507 52.3101 20.2879 51.0906 20.6783 50.5503Z" fill="#EA1818"/>
<path d="M20.6783 50.5503C20.9907 43.9127 21.3343 29.7114 20.2098 26.0067C20.4441 25.3892 21.5217 24.5248 23.958 26.0067C26.3944 27.4886 27.7844 39.2819 28.1748 44.9933M20.6783 50.5503C20.2879 51.0906 19.507 52.3101 19.507 52.8658C19.507 53.4215 22.4744 63.7483 23.958 68.8423V70L31.2203 69.5369M20.6783 50.5503L28.1748 44.9933M28.1748 44.9933L32.3916 42.6778C33.2664 43.0072 34.7812 43.7759 36.3741 44.9839M31.2203 69.5369C32.782 69.4597 35.9993 69.0738 36.3741 68.1476C36.8427 66.9899 39.8881 60.9698 42.465 58.4228V52.4027C42.9336 51.7852 43.9175 50.3651 44.1049 49.6241C44.3392 48.698 39.8881 43.1409 39.6538 41.7517C39.4196 40.3624 35.6713 40.8067 36.3741 44.9839M31.2203 69.5369C32.3916 68.2248 34.7343 65.045 34.7343 62.8221C34.7343 60.5993 33.9404 58.0369 33.5434 57.0335M36.3741 44.9839C37.7672 46.0403 39.22 47.4327 40.3566 49.1611C40.5128 51.7852 39.935 57.4503 36.3741 59.1174C35.6516 58.7366 34.4479 57.9623 33.5434 57.0335M33.5434 57.0335C32.9816 56.4566 32.5352 55.82 32.3916 55.1812C32.0168 53.5141 33.7972 54.1778 34.7343 54.7181C35.0466 55.7215 35.8119 57.5892 36.3741 57.0335C37.0769 56.3389 38.4825 54.255 38.2482 52.8658C38.0608 51.7543 37.3893 50.859 37.0769 50.5503C36.283 50.0872 34.4649 49.1611 33.5434 49.1611M24.6608 54.7181V52.4027L30.7517 49.6241" stroke="black"/>
</svg>
